<?xml version="1.0" standalone="no"?>
<!DOCTYPE svg PUBLIC "-//W3C//DTD SVG 1.1//EN" "http://www.w3.org/Graphics/SVG/1.1/DTD/svg11.dtd" >
<svg xmlns="http://www.w3.org/2000/svg">
<metadata>
Created by FontForge 20120731 at Fri Nov 16 08:50:59 2018
 By Brian Hall
</metadata>
<defs>
<font id="ddg-serp-icons" horiz-adv-x="512" >
  <font-face 
    font-family="icons"
    font-weight="500"
    font-stretch="normal"
    units-per-em="512"
    panose-1="2 0 6 9 0 0 0 0 0 0"
    ascent="448"
    descent="-64"
    x-height="300"
    cap-height="448"
    bbox="0 -64 823 497"
    underline-thickness="25"
    underline-position="-52"
    unicode-range="U+0021-2B06"
  />
<missing-glyph 
d="M17 0v341h136v-341h-136zM34 17h102v307h-102v-307z" />
    <glyph glyph-name=".notdef" 
d="M17 0v341h136v-341h-136zM34 17h102v307h-102v-307z" />
    <glyph glyph-name=".null" horiz-adv-x="0" 
 />
    <glyph glyph-name="nonmarkingreturn" 
 />
    <glyph glyph-name="alert" unicode="!" 
d="M416 416q27 0 45.5 -18.5t18.5 -45.5v-320q0 -27 -18.5 -45.5t-45.5 -18.5h-320q-27 0 -45.5 18.5t-18.5 45.5v320q0 27 18.5 45.5t45.5 18.5h320zM224 320v-141h63v141h-63zM288 65v63h-64v-63h64z" />
    <glyph glyph-name="frown" unicode="(" 
d="M256 -64q-106 0 -181 75t-75 181t75 181t181 75t181 -75t75 -181t-75 -181t-181 -75zM256 401q-87 0 -148 -61t-61 -148t61 -148t148 -61t148 61t61 148t-61 148t-148 61zM372 64q-7 -7 -16 -7t-16 7q-35 33 -83 33t-82 -33q-7 -7 -16.5 -7t-16.5 7t-7 16.5t7 16.5v0
q47 47 115 47t115 -47v0q7 -6 7 -16t-7 -17zM314 192q-14 0 -24.5 10.5t-10.5 24.5t10.5 24.5t24.5 10.5t24.5 -10.5t10.5 -24.5t-10.5 -24.5t-24.5 -10.5zM198 192q-14 0 -24.5 10.5t-10.5 24.5t10.5 24.5t24.5 10.5t24.5 -10.5t10.5 -24.5t-10.5 -24.5t-24.5 -10.5z" />
    <glyph glyph-name="smile" unicode=")" 
d="M256 -64q-106 0 -181 75t-75 181t75 181t181 75t181 -75t75 -181t-75 -181t-181 -75zM256 401q-87 0 -148 -61t-61 -148t61 -148t148 -61t148 61t61 148t-61 148t-148 61zM370 99q-47 -47 -115 -47t-115 47v0q-7 7 -7 16.5t7 16t16 6.5t16 -7q35 -33 83 -33t82 33
q7 7 16.5 7t16.5 -7q7 -5 7 -15t-7 -17v0zM314 192q-14 0 -24.5 10.5t-10.5 24.5t10.5 24.5t24.5 10.5t24.5 -10.5t10.5 -24.5t-10.5 -24.5t-24.5 -10.5zM198 192q-14 0 -24.5 10.5t-10.5 24.5t10.5 24.5t24.5 10.5t24.5 -10.5t10.5 -24.5t-10.5 -24.5t-24.5 -10.5z" />
    <glyph glyph-name="plus" unicode="+" 
d="M416 224v-64h-128v-128h-64v128h-128v64h128v128h64v-128h128z" />
    <glyph glyph-name="minus" unicode="-" 
d="M416 160h-320v64h320v-64z" />
    <glyph glyph-name="left" unicode="&#x3c;" 
d="M340 405l46 -46l-168 -167l168 -168l-46 -45l-167 167h-1l-45 46z" />
    <glyph glyph-name="right" unicode="&#x3e;" 
d="M386 192l-46 -46l-168 -167l-45 45l168 168l-168 167l45 46z" />
    <glyph glyph-name="marker" unicode="@" 
d="M88 273q0 71 49 116.5t119 45.5t119 -45.5t49 -116.5q0 -31 -17 -72.5t-42 -78.5t-49.5 -69.5t-42.5 -51.5l-17 -20q-7 8 -18.5 20.5t-40.5 50t-51 71.5t-40 76.5t-18 73.5zM256 332q-27 0 -46 -18.5t-19 -46t19 -46t46 -18.5t46 18.5t19 46t-19 46t-46 18.5z" />
    <glyph glyph-name="clock" unicode="C" 
d="M256 384q80 0 136 -56t56 -136t-56 -136t-136 -56t-136 56t-56 136t56 136t136 56zM256 57q56 0 96 40t40 96.5t-40 96t-96 39.5t-96 -39.5t-40 -96t40 -96.5t96 -40zM256 288h32v-128h-96v32h64v96z" />
    <glyph glyph-name="grid" unicode="G" 
d="M0 288h96v-96h-96v96zM160 288h96v-96h-96v96zM320 288h96v-96h-96v96zM0 448h96v-96h-96v96zM160 448h96v-96h-96v96zM320 448h96v-96h-96v96zM0 128h96v-96h-96v96zM160 128h96v-96h-96v96zM320 128h96v-96h-96v96z" />
    <glyph glyph-name="info" unicode="I" 
d="M256 448q106 0 181 -75t75 -181t-75 -181t-181 -75t-181 75t-75 181t75 181t181 75zM288 64v160h-64v-160h64zM288 256v64h-64v-64h64z" />
    <glyph glyph-name="comment" unicode="O" 
d="M258.5 409q104.5 0 178.5 -59.5t74 -144.5q0 -81 -72 -126.5t-181 -45.5q-20 0 -68 -22.5t-85 -45.5l-38 -23q3 4 7.5 10.5t13.5 25.5t12 37.5t-3.5 42t-25.5 42.5q-3 3 -12.5 11.5t-12 11t-10 9.5t-9.5 10t-7 9.5t-6.5 11.5t-4 12t-3 14.5t-0.5 15.5q0 85 74 144.5
t178.5 59.5z" />
    <glyph glyph-name="loupe" unicode="S" 
d="M502 7q9 -9 9 -21t-9 -20l-20 -20q-8 -9 -20 -9t-21 9l-93 93q-63 -42 -140.5 -34.5t-132.5 62.5q-64 64 -64 153.5t64 153t154 63.5t153 -64q56 -55 63 -133t-36 -140zM107.5 99q50.5 -50 121.5 -50t121 50t50 121t-50 121t-121 50t-121.5 -50t-50.5 -121t50.5 -121z
" />
    <glyph glyph-name="users" unicode="U" 
d="M512 46v-46h-128v78l-32 18v32q-32 11 -32 32v64q0 3 0.5 7t3.5 15t8 19.5t16 15.5t26 7h10h10q23 0 36.5 -16t15.5 -32l2 -16v-64q0 -9 -8 -17t-16 -11l-8 -4v-32zM225 128l127 -63v-65h-352v64l129 64v64q-4 1 -9 3.5t-14 10.5t-9 18v96q0 7 2 15.5t9 20.5t24 20t43 8
h4q25 0 42.5 -8t24 -20t9 -20.5t2.5 -15.5v-96q0 -10 -8 -18t-16 -11l-8 -3v-64z" />
    <glyph glyph-name="close" unicode="X" 
d="M281 192l184 -184q5 -5 5 -12t-5.5 -12.5t-12.5 -5.5t-12 6l-184 184l-184 -184q-5 -6 -12.5 -6t-12.5 5.5t-5 12.5t5 12l184 184l-184 184q-5 5 -5 12.5t5 12.5t12.5 5t12.5 -5l184 -184l184 184q5 5 12 5t12.5 -5.5t5.5 -12.5t-5 -12z" />
    <glyph glyph-name="up" unicode="^" 
d="M255 218l-134 -133l-45 43l179 172l181 -172l-45 -44z" />
    <glyph glyph-name="football" unicode="a" 
d="M196 413l-161 -161q-10 76 12 149q70 22 149 12zM381.5 320.5q59.5 -59.5 83.5 -140.5l-194 -200q-81 24 -141 84t-83 140l194 200q81 -24 140.5 -83.5zM319 102l24 30l-150 150l-27 -30zM477 132q10 -76 -12 -149q-68 -22 -149 -12z" />
    <glyph glyph-name="cloudsave" unicode="c" 
d="M187 280q2 3 4.5 9.5t13.5 22.5t25 27.5t38.5 20t53.5 5.5q33 -5 57 -21.5t33.5 -37t14.5 -40.5t5 -34v-13q3 -1 9 -2.5t20.5 -9.5t25 -18.5t18.5 -30.5t7 -45q-4 -23 -14.5 -39.5t-24 -24t-26 -12t-21.5 -5.5h-9h-129v96h46l-78 80l-70 -80h38v-96h-133q-4 0 -10 0.5
t-21.5 5.5t-27.5 13t-21.5 25.5t-10.5 41.5q0 24 9 43t20 29.5t25.5 17.5t20 9t9.5 2q1 3 -0.5 12.5t6.5 26.5t24 27q22 11 38 9.5t26 -8.5z" />
    <glyph glyph-name="directions" unicode="d" 
d="M293 119v88q-46 0 -78 -31t-32 -75v-92h-73v366h73v-128q39 36 110 36v92l146 -128z" />
    <glyph glyph-name="eye" unicode="i" 
d="M259 326q29 0 61 -13.5t57.5 -33t47 -39t33.5 -33.5l12 -14q-5 -5 -12.5 -14.5t-31 -33.5t-47.5 -42t-58 -33t-65.5 -15t-65 14t-59 34.5t-46.5 41t-32 34.5l-11 14q5 5 24.5 25.5t30 30.5t32 27.5t39 26.5t42 16t49.5 7zM255 93q40 0 68.5 28.5t28.5 68.5t-28.5 68.5
t-68.5 28.5t-68.5 -28.5t-28.5 -68.5t28.5 -68.5t68.5 -28.5zM254 249q24 0 41 -17t17 -41t-17 -41t-41 -17t-41 17t-17 41t17 41t41 17zM293 205.5q8 7.5 -5 20.5q-12 12 -20 4t4.5 -20t20.5 -4.5z" />
    <glyph glyph-name="lock" unicode="l" 
d="M372 -64h-372v279h47v117q0 49 33.5 82.5t82.5 33.5h46q49 0 83 -33.5t34 -82.5v-117h46v-279zM279 332q0 28 -21 48.5t-49 20.5h-46q-28 0 -49 -20.5t-21 -48.5v-117h186v117z" />
    <glyph glyph-name="news" unicode="n" 
d="M469 392q11 0 19 -8t8 -19v-332q0 -17 -12.5 -29t-28.5 -12h-399q-15 0 -27.5 12.5t-12.5 28.5v279q0 11 8 19t19 8v-294q0 -5 3.5 -9t9.5 -4t9.5 4t3.5 9v320q0 11 8 19t19 8h373zM110 326v-107q0 -6 3.5 -10t9.5 -4h133q5 0 9 4t4 10v107q0 5 -4 9t-9 4h-133
q-6 0 -9.5 -4t-3.5 -9zM256 45q6 0 9.5 4t3.5 9.5t-3.5 9.5t-9.5 4h-133q-6 0 -10 -4t-4 -9.5t4 -9.5t10 -4h133zM256 99q6 0 9.5 3.5t3.5 9.5t-3.5 9.5t-9.5 3.5h-133q-6 0 -10 -3.5t-4 -9.5t4 -9.5t10 -3.5h133zM256 152q6 0 9.5 4t3.5 9.5t-3.5 9.5t-9.5 4h-133
q-6 0 -10 -4t-4 -9.5t4 -9.5t10 -4h133zM443 45q5 0 9 4t4 9.5t-4 9.5t-9 4h-120q-6 0 -10 -4t-4 -9.5t4 -9.5t10 -4h120zM443 99q5 0 9 3.5t4 9.5t-4 9.5t-9 3.5h-120q-6 0 -10 -3.5t-4 -9.5t4 -9.5t10 -3.5h120zM443 152q5 0 9 4t4 9.5t-4 9.5t-9 4h-120q-6 0 -10 -4
t-4 -9.5t4 -9.5t10 -4h120zM443 205q5 0 9 4t4 9.5t-4 9.5t-9 4h-120q-6 0 -10 -4t-4 -9.5t4 -9.5t10 -4h120zM443 259q5 0 9 3.5t4 9.5t-4 9.5t-9 3.5h-120q-6 0 -10 -3.5t-4 -9.5t4 -9.5t10 -3.5h120zM443 312q5 0 9 4t4 9.5t-4 9.5t-9 4h-120q-6 0 -10 -4t-4 -9.5t4 -9.5
t10 -4h120z" />
    <glyph glyph-name="twitter" unicode="t" 
d="M161 -16q-87 0 -161 47q12 -2 25 -2q73 0 131 46q-35 0 -62 20.5t-37 52.5q10 -2 20 -2q15 0 28 3q-37 8 -61 37t-24 66v2q23 -12 48 -13q-47 31 -47 87q0 29 14 53q40 -48 96.5 -77.5t120.5 -32.5q-3 13 -3 24q0 44 31 74.5t74 30.5q46 0 77 -33q36 7 67 26
q-12 -38 -46 -59q32 4 60 17q-22 -32 -52 -55v-13q0 -53 -20 -105.5t-56.5 -96t-95 -70.5t-127.5 -27z" />
    <glyph glyph-name="user" unicode="u" 
d="M243 384h24h4q18 0 31.5 -7.5t20.5 -18t11.5 -21t5.5 -18.5l1 -7q1 -77 1 -95q0 -15 -21 -24q-3 -1 -4 0q1 0 1 -13v-27l-1 -13l131 -91v-49h-383l-1 48l134 93v52q-2 0 -6 1t-11 7t-7 16v95q1 3 2 7.5t5.5 17t11.5 22t20 17.5t30 8z" />
    <glyph glyph-name="down" unicode="v" 
d="M255 166l136 134l45 -44l-181 -172l-179 172l45 43z" />
    <glyph glyph-name="prev" unicode="&#xab;" 
d="M115 177l181 181l45 -46l-135 -135l135 -136l-45 -45l-136 135z" />
    <glyph glyph-name="next" unicode="&#xbb;" 
d="M397 177l-45 -46l-136 -135l-45 45l135 136l-135 135l45 46z" />
    <glyph glyph-name="close-bold" unicode="&#xd7;" 
d="M437 328l-136 -136l136 -136l-45 -45l-136 136l-136 -136l-45 45l136 136l-136 136l45 45l136 -136l136 136z" />
    <glyph glyph-name="unencrypted" unicode="&#x1f51;" 
d="M96 91v133h32v32q0 53 37.5 90.5t90.5 37.5q55 0 93 -40l-45 -46q-19 22 -48 22q-27 0 -45.5 -18.5t-18.5 -45.5h69h-69v-32h37zM320 133l224 224h5v-224h-229zM777 497l46 -45l-362 -362l-46 45z" />
    <glyph glyph-name="more" unicode="&#x2026;" 
d="M80 256q20 0 34 -14t14 -34t-14 -34t-34 -14t-34 14t-14 34t14 34t34 14zM240 256q20 0 34 -14t14 -34t-14 -34t-34 -14t-34 14t-14 34t14 34t34 14zM400 256q20 0 34 -14t14 -34t-14 -34t-34 -14t-34 14t-14 34t14 34t34 14z" />
    <glyph glyph-name="left-big" unicode="&#x2039;" 
d="M362 -63l-255 255l256 256l30 -30l-226 -226l225 -225z" />
    <glyph glyph-name="right-big" unicode="&#x203a;" 
d="M129 447l255 -255l-256 -256l-30 30l226 226l-225 225z" />
    <glyph glyph-name="arrow-left" unicode="&#x2190;" 
d="M249 4l-22 -23l-214 213l214 214l22 -23l-174 -175h424v-32h-424z" />
    <glyph glyph-name="arrow-up" unicode="&#x2191;" 
d="M469 224l-23 -23l-174 175v-424h-32v424l-174 -175l-23 23l213 213z" />
    <glyph glyph-name="arrow-right" unicode="&#x2192;" 
d="M499 195l-214 -213l-22 22l174 175h-424v32h424l-174 174l22 23z" />
    <glyph glyph-name="arrow-down" unicode="&#x2193;" 
d="M469 165l-213 -213l-213 213l23 23l174 -175v424h32v-424l174 175z" />
    <glyph glyph-name="swap" unicode="&#x21a9;" 
d="M352 192v96h-192v64h192v96l160 -128zM32 288v64h64v-64h-64zM160 -32l-160 128l160 128v-96h192v-64h-192v-96zM480 128v-64h-64v64h64z" />
    <glyph glyph-name="uploaded" unicode="&#x21d1;" 
d="M400 272l-143 -120v0v0v1v1v1v1v1v1v1v1v1v1v1v1v1v1v1v1v1v1v2v1v1v1v2v1v2v1v1v2v1v2v1v2v2v1v2v1v2v2v1v2v2v2v1v2v2v2v10q-19 -1 -37.5 -7.5t-37.5 -19t-30.5 -35.5t-11.5 -54q0 -38 24 -65.5t62 -34.5q-60 8 -100 51t-40 103q0 36 13.5 64.5t32.5 45t43.5 27.5
t44 15.5t37.5 5.5v0v0v1v1v1v1v1v1v1v1v1v1v1v1v1v1v1v1v2v1v1v1v1v2v1v1v2v1v2v1v1v2v1v2v1v2v2v1v2v1v2v2v1v2v2v1v2v2v2v9z" />
    <glyph glyph-name="collapse" unicode="&#x21f1;" 
d="M224 160v-208l-80 80l-96 -96l-48 48l96 96l-80 80h208zM512 400l-96 -96l80 -80h-208v208l80 -80l96 96z" />
    <glyph glyph-name="expand" unicode="&#x21f2;" 
d="M512 448v-208l-80 80l-96 -96l-48 48l96 96l-80 80h208zM224 112l-96 -96l80 -80h-208v208l80 -80l96 96z" />
    <glyph glyph-name="menu" unicode="&#x21f6;" 
d="M0 384h480v-64h-480v64zM0 224h480v-64h-480v64zM0 64h480v-64h-480v64z" />
    <glyph glyph-name="more-sign" unicode="&#x2295;" 
d="M256 448q106 0 181 -75t75 -181t-75 -181t-181 -75t-181 75t-75 181t75 181t181 75zM384 160v64h-96v96h-64v-96h-96v-64h96v-96h64v96h96z" />
    <glyph glyph-name="less-sign" unicode="&#x229d;" 
d="M256 448q106 0 181 -75t75 -181t-75 -181t-181 -75t-181 75t-75 181t75 181t181 75zM384 160v64h-256v-64h256z" />
    <glyph glyph-name="home" unicode="&#x2302;" 
d="M384 128v-128h-96v128h-64v-128h-96v128h-70l198 230l198 -230h-70z" />
    <glyph glyph-name="pause" unicode="&#x2551;" 
d="M316 351h99v-318h-99v318zM97 351h99v-318h-99v318z" />
    <glyph glyph-name="t-up" unicode="&#x25b2;" 
d="M256 292l145 -196h-290z" />
    <glyph glyph-name="t-right" unicode="&#x25b6;" 
d="M160 47v290l196 -145z" />
    <glyph glyph-name="right-sign" unicode="&#x25b7;" 
d="M256 448q106 0 181 -75t75 -181t-75 -181t-181 -75t-181 75t-75 181t75 181t181 75zM352 179l13 13l-13 13l-115 115l-45 -45l83 -83l-83 -83l45 -45z" />
    <glyph glyph-name="play" unicode="&#x25ba;" 
d="M435 192l-307 -164v328z" />
    <glyph glyph-name="t-down" unicode="&#x25bc;" 
d="M111 288h290l-145 -196z" />
    <glyph glyph-name="t-left" unicode="&#x25c0;" 
d="M156 192l196 145v-290z" />
    <glyph glyph-name="left-sign" unicode="&#x25c1;" 
d="M256 448q106 0 181 -75t75 -181t-75 -181t-181 -75t-181 75t-75 181t75 181t181 75zM160 179l115 -115l45 45l-83 83l83 83l-45 45l-115 -115l-13 -13z" />
    <glyph glyph-name="circle" unicode="&#x25cf;" 
d="M256 448q106 0 181 -75t75 -181t-75 -181t-181 -75t-181 75t-75 181t75 181t181 75z" />
    <glyph glyph-name="star" unicode="&#x2605;" 
d="M256 391l54 -149l159 -5l-125 -98l44 -153l-132 89l-132 -89l44 153l-125 98l159 5z" />
    <glyph glyph-name="check-sign" unicode="&#x2611;" 
d="M400.5 350.5q62.5 -62.5 62.5 -151t-62.5 -151t-151 -62.5t-151.5 62.5t-63 151t63 151t151.5 62.5t151 -62.5zM260 122l-1 1l129 128l-43 43l-129 -128l-63 63l-43 -43l107 -107z" />
    <glyph glyph-name="move" unicode="&#x2629;" 
d="M512 192l-96 -96v64h-127l-1 -128h64l-96 -96l-96 96h64v128h-128v-64l-96 96l96 96v-64h128v127l-64 1l96 96l96 -96l-63 -1v-127h127v64z" />
    <glyph glyph-name="region" unicode="&#x2637;" 
d="M253.5 435q92.5 0 157.5 -65t65 -156.5t-65 -156t-157.5 -64.5t-157.5 64.5t-65 156t65 156.5t157.5 65zM253 315q59 0 59 41q0 18 -17.5 29t-49.5 11q-17 -1 -24 -2q-17 -4 -15.5 -15t17.5 -11q11 0 15 -12t-1 -24t-17 -12q-7 0 -8 12.5t-9 12.5q-10 0 -12 -5.5
t-2 -17.5v-4q0 -23 -18 -23q-15 0 -15 25q0 7 14 22.5t14 21.5q0 15 -28 3q-8 -3 -15 -8q-58 -47 -71 -109q11 -31 81 -57q15 -6 28 -23.5t13 -40.5v-80v-1v-1q1 -7 1.5 -11.5t2 -9t5 -4t9.5 6.5q7 7 13 14q4 6 18 16.5t23 23.5t9 30q0 28 -24.5 54.5t-45.5 26.5
q-20 0 -32 6.5t-12 17.5q0 5 11.5 9t25.5 7t26 10t12 18q0 22 5 37.5t14 15.5zM393 114q14 0 31 33q11 26 11 67q-2 7 -14 25t-12 34q0 38 -27 74q-10 13 -20 -2q-7 -10 -7 -24q0 -50 -11 -50q-10 0 -20 -4.5t-10 -10.5q0 -60 39 -60q14 0 20 -20.5t9 -41t11 -20.5z" />
    <glyph glyph-name="cry" unicode="&#x2639;" 
d="M221 249q0 -14 -10 -24t-24 -10t-23.5 10t-9.5 24t9.5 23.5t23.5 9.5t24 -9.5t10 -23.5zM358 249q0 -14 -9.5 -24t-23.5 -10t-24 10t-10 24t10 23.5t24 9.5t23.5 -9.5t9.5 -23.5zM256 176q36 0 66.5 -16t46.5 -43q5 -8 3 -17.5t-10 -14.5q-6 -3 -12 -3q-13 0 -20 11
q-10 17 -30 27t-44 10t-44 -10t-30 -27q-5 -8 -14.5 -10.5t-17.5 2.5t-10 14.5t3 17.5q16 27 46.5 43t66.5 16zM256 416q93 0 158.5 -65.5t65.5 -158.5t-65.5 -158.5t-158.5 -65.5t-158.5 65.5t-65.5 158.5t65.5 158.5t158.5 65.5zM256 9q57 0 103.5 32.5t66.5 84.5
q-2 -1 -5 -1q-23 0 -40 17t-17 41q0 29 47 79l9 10q-22 46 -66.5 74.5t-97.5 28.5q-76 0 -129.5 -53.5t-53.5 -129.5t53.5 -129.5t129.5 -53.5zM435 156q17 8 17 27q0 9 -14 29q-2 2 -4 5l-8 10q0 1 -1 1q-3 3 -4 5q-30 -36 -30 -50q0 -13 9 -22t21 -9q2 0 4 1h1h2h0.5
t0.5 1h3v1q2 0 3 1z" />
    <glyph glyph-name="heart" unicode="&#x2665;" 
d="M336 376q46 0 76.5 -25.5t30.5 -81.5q0 -25 -13.5 -52t-26.5 -40l-13 -15l-161 -159l-166 165l-12 15l-17 24l-12 29l-6 33q0 56 30 81.5t76 25.5t98 -54l9 -11q2 2 6 6.5t16 16t24 20t29 15.5t32 7z" />
    <glyph glyph-name="music-note" unicode="&#x266b;" 
d="M115 -8q-30 0 -51 15.5t-24 38.5q-2 26 17.5 45.5t51.5 23.5h10q22 0 36 -4l5 -2v253l288 31v-315v-2q2 -25 -19 -45q-21 -21 -54 -24h-10q-30 0 -51 15t-24 38q-2 25 19.5 45.5t53.5 23.5h10q24 0 38 -4l5 -2v184l-224 -22v-221v-3q3 -27 -16 -45q-21 -20 -51 -23
q-5 -1 -10 -1z" />
    <glyph glyph-name="check" unicode="&#x2713;" 
d="M76 199l24 25q8 8 20 8t20 -8l53 -55q15 -16 30 -2l148 173q8 8 18.5 8.5t18.5 -7.5l33 -30q8 -8 6 -20t-10 -21l-202 -227q-8 -8 -21.5 -8t-21.5 8l-113 115q-8 8 -9.5 20t6.5 21z" />
    <glyph glyph-name="upload" unicode="&#x2912;" 
d="M448 352q0 -13 -9.5 -22.5t-22.5 -9.5h-320q-13 0 -22.5 9.5t-9.5 22.5t9.5 22.5t22.5 9.5h320q13 0 22.5 -9.5t9.5 -22.5zM132 168l125 125l125 -125q7 -7 7 -17t-7 -17t-17 -7t-17 7l-59 59v-161q0 -13 -9.5 -22.5t-22.5 -9.5t-22.5 9.5t-9.5 22.5v161l-59 -59
q-7 -7 -17 -7t-17 7t-7 17t7 17z" />
    <glyph glyph-name="download" unicode="&#x2913;" 
d="M416 64q13 0 22.5 -9.5t9.5 -22.5t-9.5 -22.5t-22.5 -9.5h-320q-13 0 -22.5 9.5t-9.5 22.5t9.5 22.5t22.5 9.5h320zM132 216q-7 7 -7 17t7 17t17 7t17 -7l59 -59v161q0 13 9.5 22.5t22.5 9.5t22.5 -9.5t9.5 -22.5v-161l59 59q7 7 17 7t17 -7t7 -17t-7 -17l-125 -124z" />
    <glyph glyph-name="arrow-top" unicode="&#x2b06;" 
d="M378 192h-90v-128h-64v128h-90l122 124z" />
  </font>
</defs>
</svg>
