<!-- Generated by IcoMoon.io -->
<svg version="1.1" xmlns="http://www.w3.org/2000/svg" width="32" height="32" viewBox="0 0 32 32">
<title>close</title>
<path d="M17.533 16l11.502-11.502c0.423-0.423 0.423-1.11 0-1.533s-1.11-0.423-1.533 0l-11.502 11.5-11.505-11.504c-0.423-0.423-1.11-0.423-1.533 0s-0.423 1.11 0 1.533l11.502 11.502-11.502 11.502c-0.423 0.423-0.423 1.11 0 1.533s1.11 0.423 1.533 0l11.502-11.502 11.502 11.502c0.423 0.423 1.11 0.423 1.533 0s0.423-1.11 0-1.533l-11.5-11.499z"></path>
</svg>
