<?xml version="1.0" encoding="UTF-8" standalone="no"?>
<svg
   xmlns:dc="http://purl.org/dc/elements/1.1/"
   xmlns:cc="http://creativecommons.org/ns#"
   xmlns:rdf="http://www.w3.org/1999/02/22-rdf-syntax-ns#"
   xmlns:svg="http://www.w3.org/2000/svg"
   xmlns="http://www.w3.org/2000/svg"
   xmlns:sodipodi="http://sodipodi.sourceforge.net/DTD/sodipodi-0.dtd"
   xmlns:inkscape="http://www.inkscape.org/namespaces/inkscape"
   height="18"
   viewBox="0 0 18 18"
   width="18"
   version="1.1"
   id="svg60"
   sodipodi:docname="cog.svg"
   inkscape:version="0.92.3 (2405546, 2018-03-11)">
  <metadata
     id="metadata66">
    <rdf:RDF>
      <cc:Work
         rdf:about="">
        <dc:format>image/svg+xml</dc:format>
        <dc:type
           rdf:resource="http://purl.org/dc/dcmitype/StillImage" />
      </cc:Work>
    </rdf:RDF>
  </metadata>
  <defs
     id="defs64" />
  <sodipodi:namedview
     pagecolor="#ffffff"
     bordercolor="#666666"
     borderopacity="1"
     objecttolerance="10"
     gridtolerance="10"
     guidetolerance="10"
     inkscape:pageopacity="0"
     inkscape:pageshadow="2"
     inkscape:window-width="3200"
     inkscape:window-height="1671"
     id="namedview62"
     showgrid="false"
     inkscape:zoom="77.833333"
     inkscape:cx="9"
     inkscape:cy="9"
     inkscape:window-x="0"
     inkscape:window-y="55"
     inkscape:window-maximized="1"
     inkscape:current-layer="svg60" />
  <path
     d="m9.61721778 0c.50432332 0 .92972432.37553644.99227792.87596527l.1694758 1.35208864c.621936.16293526 1.2101118.40927913 1.7518537.72635791l1.0756496-.83705717c.3980886-.30962453.9644369-.27436496 1.3210474.08224544l.8728777.87287776c.3566104.3566104.39187.9229587.0822454 1.32104739l-.8365129 1.0765795c.316969.54174575.5632087 1.1299098.7260489 1.7518219l1.3518534.1685777c.5004289.0625536.8759653.48795461.8759653.99227788v1.23443556c0 .50432332-.3755364.92972432-.8759653.99227792l-1.3518534.1685777c-.1628402.6219121-.4090799 1.2100761-.7260489 1.7518219l.8365129 1.0765795c.3096246.3980886.274365.9644369-.0822454 1.3210474l-.8728777.8728777c-.3566105.3566104-.9229588.39187-1.3210474.0822454l-1.0756496-.8370571c-.5417419.3170788-1.1299177.5634226-1.7518537.7263579l-.1694758 1.3520886c-.0625536.5004289-.4879546.8759653-.99227792.8759653h-1.23443556c-.50432327 0-.92972428-.3755364-.99227788-.8759653l-.1694758-1.3520886c-.62193608-.1629353-1.21011188-.4092791-1.7518537-.7263579l-1.0756496.8370571c-.39808869.3096246-.96443699.274365-1.32104739-.0822454l-.87287776-.8728777c-.3566104-.3566105-.39186997-.9229588-.08224544-1.3210474l.836513-1.0765795c-.31696905-.5417458-.56320879-1.1299098-.72604896-1.7518219l-1.35185342-.1685777c-.50042883-.0625536-.87596527-.4879546-.87596527-.99227792v-1.23443556c0-.50432327.37553644-.92972428.87596527-.99227788l1.35185342-.1685777c.16284017-.6219121.40907991-1.21007615.72604896-1.7518219l-.836513-1.0765795c-.30962453-.39808869-.27436496-.96443699.08224544-1.32104739l.87287776-.87287776c.3566104-.3566104.9229587-.39186997 1.32104739-.08224544l1.0756496.83705717c.54174182-.31707878 1.12991762-.56342265 1.7518537-.72635791l.1694758-1.35208864c.0625536-.50042883.48795461-.87596527.99227788-.87596527zm-.61721778 12c1.6568542 0 3-1.3431458 3-3 0-1.65685425-1.3431458-3-3-3-1.65685425 0-3 1.34314575-3 3 0 1.6568542 1.34314575 3 3 3z"
     fill="#aaa"
     fill-rule="evenodd"
     id="path58"
     style="fill:#000000" />
</svg>
