<svg width="20" height="22" viewBox="0 0 20 22" fill="none" xmlns="http://www.w3.org/2000/svg">
    <title>copy</title>
    <path d="M13.0324 0H2.051C0.952859 0 0.0543823 0.9 0.0543823 2V15C0.0543823 15.55 0.503621 16 1.05269 16C1.60176 16 2.051 15.55 2.051 15V3C2.051 2.45 2.50024 2 3.04931 2H13.0324C13.5815 2 14.0307 1.55 14.0307 1C14.0307 0.45 13.5815 0 13.0324 0ZM13.6214 4.59L18.4432 9.42C18.8126 9.79 19.0222 10.3 19.0222 10.83V20C19.0222 21.1 18.1238 22 17.0256 22H6.03425C4.93611 22 4.04761 21.1 4.04761 20L4.0576 6C4.0576 4.9 4.94609 4 6.04423 4H12.2038C12.7329 4 13.242 4.21 13.6214 4.59ZM13.0324 11H17.5248L12.0341 5.5V10C12.0341 10.55 12.4833 11 13.0324 11Z"/>
</svg>

