<!-- Generated by IcoMoon.io -->
<svg version="1.1" xmlns="http://www.w3.org/2000/svg" width="32" height="32" viewBox="0 0 32 32">
<title>cry</title>
<path d="M13.832 12.465c0 1.168-0.947 2.116-2.116 2.116s-2.116-0.947-2.116-2.116c0-1.168 0.947-2.116 2.116-2.116s2.116 0.947 2.116 2.116z"></path>
<path d="M22.4 12.465c0 1.168-0.947 2.116-2.116 2.116s-2.116-0.947-2.116-2.116c0-1.168 0.947-2.116 2.116-2.116s2.116 0.947 2.116 2.116z"></path>
<path d="M16 17.023c-2.983 0-5.698 1.41-7.087 3.68-0.412 0.672-0.2 1.552 0.473 1.964s1.552 0.199 1.964-0.473c0.86-1.406 2.685-2.314 4.65-2.314s3.79 0.909 4.649 2.314c0.27 0.44 0.739 0.683 1.22 0.683 0.254 0 0.511-0.068 0.743-0.21 0.673-0.412 0.885-1.291 0.473-1.964-1.388-2.27-4.104-3.68-7.086-3.68z"></path>
<path d="M15.999 2c-7.731 0-13.999 6.269-13.999 14s6.268 14 13.999 14c7.732 0 14.001-6.268 14.001-14s-6.268-14-14.001-14zM15.999 27.424c-6.308 0-11.423-5.115-11.423-11.424s5.115-11.424 11.423-11.424c4.521 0 8.427 2.625 10.279 6.434l-0.561 0.588c-0.497 0.521-2.978 3.209-2.978 4.973 0 1.978 1.61 3.588 3.589 3.588 0.107 0 0.212-0.006 0.317-0.017-1.659 4.26-5.799 7.281-10.646 7.281zM27.2 18.255c0 0.001-0.001 0.001-0.001 0.001-0.060 0.031-0.123 0.059-0.187 0.084-0.012 0.004-0.024 0.008-0.036 0.013-0.053 0.020-0.108 0.036-0.162 0.051-0.017 0.005-0.035 0.009-0.053 0.014-0.052 0.012-0.105 0.022-0.158 0.029-0.019 0.003-0.038 0.007-0.056 0.008-0.072 0.008-0.144 0.014-0.217 0.014-1.047 0-1.898-0.851-1.898-1.898 0-0.602 0.9-1.958 1.897-3.126 0.079 0.093 0.159 0.19 0.239 0.287 0.016 0.020 0.031 0.039 0.048 0.059 0.166 0.205 0.331 0.416 0.489 0.629 0.006 0.008 0.011 0.015 0.017 0.023 0.081 0.11 0.16 0.22 0.237 0.33l0 0c0.498 0.716 0.87 1.398 0.87 1.798-0 0.732-0.418 1.368-1.028 1.684z"></path>
</svg>
