<!-- Generated by IcoMoon.io -->
<svg version="1.1" xmlns="http://www.w3.org/2000/svg" width="32" height="32" viewBox="0 0 32 32">
<title>download</title>
<path d="M26 24h-20c-1.106 0-2 0.894-2 2s0.894 2 2 2h20c1.106 0 2-0.894 2-2s-0.894-2-2-2z"></path>
<path d="M8.256 14.475l7.8 7.8 7.8-7.8c0.587-0.588 0.587-1.537 0-2.119-0.587-0.588-1.538-0.588-2.119 0v0l-3.675 3.681v-10.037c0-1.106-0.894-2-2-2s-2 0.894-2 2v10.037l-3.681-3.681c-0.588-0.588-1.537-0.588-2.119 0-0.588 0.581-0.588 1.531-0.006 2.119v0z"></path>
</svg>
