<!-- Generated by IcoMoon.io -->
<svg version="1.1" xmlns="http://www.w3.org/2000/svg" width="32" height="32" viewBox="0 0 32 32">
<title>eye</title>
<path d="M16.161 7.611c-6.473 0-10.608 5.378-13.544 8.317 0 0 6.353 8.634 13.365 8.634s13.366-8.634 13.366-8.634-6.715-8.317-13.188-8.317zM15.936 22.18c-3.35 0-6.068-2.718-6.068-6.068 0-3.351 2.718-6.064 6.068-6.064s6.064 2.714 6.064 6.064c0.003 3.35-2.71 6.068-6.064 6.068zM15.859 12.424c-2.001 0-3.626 1.625-3.626 3.626s1.622 3.626 3.626 3.626c2.004 0 3.626-1.625 3.626-3.626 0.001-2.001-1.622-3.626-3.626-3.626zM18.295 15.14c-0.263 0.268-0.828 0.147-1.248-0.277-0.424-0.42-0.548-0.981-0.277-1.252s0.829-0.147 1.255 0.272c0.417 0.424 0.546 0.987 0.27 1.257z"></path>
</svg>
