<!-- Generated by IcoMoon.io -->
<svg version="1.1" xmlns="http://www.w3.org/2000/svg" width="32" height="32" viewBox="0 0 32 32">
<title>football</title>
<path d="M12.262 2.181c-2.988-0.375-6.35-0.188-9.338 0.744-0.931 3.175-1.119 6.35-0.75 9.337l10.088-10.081zM23.844 7.969c-2.613-2.612-5.6-4.294-8.775-5.231l-12.144 12.512c0.931 3.175 2.612 6.163 5.231 8.775 2.613 2.613 5.6 4.294 8.775 5.231l12.144-12.506c-0.938-3.175-2.619-6.169-5.231-8.781zM19.919 21.6l-9.519-9.338 1.681-1.869 9.338 9.338-1.5 1.869zM29.819 19.738l-10.081 10.081c3.175 0.375 6.35 0.188 9.338-0.75 0.931-3.169 1.119-6.344 0.744-9.331z"></path>
</svg>
