<!-- Generated by IcoMoon.io -->
<svg version="1.1" xmlns="http://www.w3.org/2000/svg" width="32" height="32" viewBox="0 0 32 32">
<title>frown</title>
<path d="M16 32c-8.873 0-16-7.127-16-16s7.127-16 16-16c8.873 0 16 7.127 16 16s-7.127 16-16 16zM16 2.909c-7.273 0-13.091 5.818-13.091 13.091s5.818 13.091 13.091 13.091 13.091-5.818 13.091-13.091c0-7.273-5.818-13.091-13.091-13.091zM23.273 24c-0.582 0.582-1.455 0.582-2.036 0 0 0 0 0 0 0-2.909-2.764-7.418-2.764-10.327 0 0 0 0 0 0 0-0.582 0.582-1.455 0.582-2.036 0s-0.582-1.455 0-2.036c0 0 0 0 0 0v0c3.927-3.927 10.473-3.927 14.4 0v0 0c0.582 0.436 0.582 1.455 0 2.036zM19.636 16c-1.164 0-2.182-1.018-2.182-2.182s1.018-2.182 2.182-2.182c1.164 0 2.182 1.018 2.182 2.182s-1.018 2.182-2.182 2.182zM12.364 16c-1.164 0-2.182-1.018-2.182-2.182s1.018-2.182 2.182-2.182c1.164 0 2.182 1.018 2.182 2.182s-1.018 2.182-2.182 2.182z"></path>
</svg>
