<svg width="48" height="32" viewBox="0 0 48 32" fill="none" xmlns="http://www.w3.org/2000/svg">
<path d="M31.8908 1C32.9794 1 33.9265 1.91714 33.9265 3.07V26.3779C33.9265 27.535 33.0265 28.4479 31.8908 28.4479C31.6207 28.4473 31.3534 28.3931 31.1045 28.2885C30.8555 28.1839 30.6298 28.0308 30.4404 27.8383C30.251 27.6457 30.1018 27.4174 30.0013 27.1667C29.9008 26.9161 29.8511 26.6479 29.8551 26.3779V26.0414L25.4473 24.9336V29.5557C25.4484 29.779 25.3976 29.9995 25.2991 30.2C25.2006 30.4004 25.0569 30.5752 24.8794 30.7107C24.6174 30.8996 24.3024 31.0008 23.9794 31C23.838 31 23.7437 31 23.6001 30.9507L11.5702 27.8714C11.2591 27.7761 10.9861 27.5849 10.7902 27.3251C10.5943 27.0654 10.4856 26.7503 10.4795 26.425V21.0807L5.83812 19.8764C5.67772 20.2194 5.42361 20.51 5.10512 20.7148C4.78663 20.9195 4.41674 21.03 4.03813 21.0336C3.76751 21.0333 3.49964 20.9792 3.25012 20.8744C3.00061 20.7697 2.77443 20.6163 2.58478 20.4232C2.39512 20.2302 2.24577 20.0013 2.14542 19.75C2.04508 19.4987 1.99574 19.2299 2.00029 18.9593V10.4393C2.00029 9.28214 2.90028 8.36928 4.03599 8.36928C4.7967 8.36928 5.50598 8.84928 5.83598 9.52428L29.853 3.40643V3.07C29.853 1.91286 30.753 1 31.8887 1H31.8908ZM13.4174 21.8007V25.2207L22.5116 27.5779V24.1129L13.4174 21.8007ZM37.1472 20.5986C37.2459 20.399 37.3839 20.2213 37.5528 20.0762C37.7218 19.9312 37.9183 19.8217 38.1305 19.7542C38.3427 19.6868 38.5664 19.6629 38.7881 19.6839C39.0098 19.7049 39.2249 19.7704 39.4208 19.8764L44.7736 22.765C45.1555 22.9951 45.4392 23.358 45.5704 23.7841C45.7017 24.2103 45.6713 24.6699 45.485 25.075C45.3512 25.3506 45.1422 25.5828 44.8821 25.7447C44.622 25.9066 44.3214 25.9916 44.015 25.99C43.7346 26.0004 43.4566 25.9337 43.2115 25.7971L37.8565 22.9086C37.0036 22.4757 36.7208 21.415 37.1472 20.5986V20.5986ZM45.3414 12.9914C45.783 13.0004 46.2035 13.1815 46.5134 13.4961C46.8232 13.8108 46.9979 14.2341 47 14.6757C46.9979 15.1173 46.8232 15.5406 46.5134 15.8553C46.2035 16.1699 45.783 16.3511 45.3414 16.36H38.9965C38.555 16.3511 38.1344 16.1699 37.8245 15.8553C37.5147 15.5406 37.3401 15.1173 37.3379 14.6757C37.3395 14.2337 37.5139 13.8099 37.8238 13.4948C38.1337 13.1796 38.5546 12.9982 38.9965 12.9893L45.3414 12.9914ZM43.2115 3.60143C43.408 3.49956 43.6227 3.43743 43.8432 3.41859C44.0638 3.39975 44.2859 3.42458 44.4969 3.49165C44.7078 3.55872 44.9035 3.66671 45.0727 3.80946C45.2419 3.95221 45.3812 4.12691 45.4829 4.32357C45.6877 4.72546 45.7284 5.19118 45.5965 5.62253C45.4646 6.05388 45.1703 6.41714 44.7757 6.63571L39.4208 9.52428C39.1734 9.65525 38.897 9.72159 38.6172 9.71714C38.3108 9.71879 38.0102 9.63375 37.7501 9.47185C37.49 9.30994 37.281 9.07777 37.1472 8.80214C36.9427 8.39974 36.9026 7.93362 37.0354 7.50221C37.1681 7.0708 37.4633 6.70785 37.8586 6.49L43.2115 3.60143Z"/>
</svg>
