<svg width="32" height="32" viewBox="0 0 32 32" xmlns="http://www.w3.org/2000/svg">
<title>horn</title>
<path d="M20.9272 6C21.6529 6 22.2843 6.57321 22.2843 7.29375V21.8612C22.2843 22.5844 21.6843 23.1549 20.9272 23.1549C20.7472 23.1546 20.569 23.1207 20.4029 23.0554C20.237 22.9899 20.0865 22.8943 19.9603 22.7739C19.834 22.6536 19.7345 22.5109 19.6675 22.3542C19.6006 22.1975 19.5674 22.0299 19.5701 21.8612V21.6509L16.6315 20.9585V23.8473C16.6322 23.9869 16.5985 24.1247 16.5327 24.25C16.467 24.3753 16.3713 24.4845 16.253 24.5692C16.0783 24.6872 15.8683 24.7505 15.653 24.75C15.5587 24.75 15.4958 24.75 15.4001 24.7192L7.38015 22.7946C7.17275 22.7351 6.99075 22.6155 6.86015 22.4532C6.72955 22.2909 6.65706 22.0939 6.65302 21.8906V18.5504L3.55875 17.7978C3.45181 18.0121 3.28241 18.1937 3.07008 18.3217C2.85775 18.4497 2.61115 18.5187 2.35876 18.521C2.17834 18.5208 1.99975 18.4871 1.83341 18.4215C1.66707 18.3561 1.51629 18.2602 1.38985 18.1396C1.26341 18.0188 1.16385 17.8758 1.09695 17.7187C1.03005 17.5617 0.99716 17.3937 1.00019 17.2246V11.8996C1.00019 11.1763 1.60019 10.6058 2.35733 10.6058C2.86446 10.6058 3.33732 10.9058 3.55732 11.3277L19.5686 7.50402V7.29375C19.5686 6.57054 20.1686 6 20.9258 6H20.9272ZM8.61157 19.0004V21.1379L14.6744 22.6112V20.4455L8.61157 19.0004ZM24.4315 18.2491C24.4973 18.1244 24.5893 18.0133 24.7019 17.9227C24.8145 17.832 24.9455 17.7636 25.087 17.7214C25.2285 17.6793 25.3776 17.6643 25.5254 17.6774C25.6732 17.6905 25.8167 17.7315 25.9471 17.7978L29.5157 19.6031C29.7703 19.747 29.9595 19.9737 30.047 20.2401C30.1345 20.5064 30.1142 20.7937 29.99 21.0469C29.9008 21.2191 29.7615 21.3643 29.5881 21.4654C29.4146 21.5666 29.2142 21.6198 29.01 21.6187C28.8231 21.6253 28.6377 21.5836 28.4743 21.4982L24.9043 19.6929C24.3357 19.4223 24.1472 18.7594 24.4315 18.2491ZM29.8943 13.4946C30.1886 13.5002 30.469 13.6134 30.6756 13.8101C30.8821 14.0068 30.9985 14.2713 31 14.5473C30.9985 14.8233 30.8821 15.0879 30.6756 15.2846C30.469 15.4812 30.1886 15.5944 29.8943 15.6H25.6644C25.37 15.5944 25.0896 15.4812 24.883 15.2846C24.6765 15.0879 24.5601 14.8233 24.5586 14.5473C24.5597 14.2711 24.6759 14.0062 24.8825 13.8092C25.0891 13.6123 25.3697 13.4989 25.6644 13.4933L29.8943 13.4946ZM28.4743 7.62589C28.6053 7.56222 28.7485 7.52339 28.8955 7.51162C29.0425 7.49985 29.1906 7.51536 29.3312 7.55728C29.4718 7.5992 29.6023 7.6667 29.7151 7.75591C29.8279 7.84513 29.9209 7.95432 29.9886 8.07723C30.1252 8.32841 30.1523 8.61949 30.0643 8.88908C29.9764 9.15868 29.7802 9.38571 29.5171 9.52232L25.9471 11.3277C25.7823 11.4095 25.598 11.451 25.4115 11.4482C25.2072 11.4492 25.0068 11.3961 24.8335 11.2949C24.66 11.1937 24.5207 11.0486 24.4315 10.8763C24.2952 10.6248 24.2684 10.3335 24.3569 10.0639C24.4454 9.79425 24.6422 9.56741 24.9057 9.43125L28.4743 7.62589Z" />
</svg>
