<svg version="1.1" xmlns="http://www.w3.org/2000/svg" width="32" height="22" viewBox="0 0 32 22">
<title>horn</title>
<path d="M21.2557 0C22.0298 0 22.7033 0.652191 22.7033 1.472V18.0465C22.7033 18.8693 22.0633 19.5185 21.2557 19.5185C21.0636 19.5181 20.8736 19.4796 20.6965 19.4052C20.5195 19.3308 20.3589 19.2219 20.2243 19.085C20.0896 18.9481 19.9835 18.7857 19.912 18.6075C19.8406 18.4292 19.8052 18.2385 19.8081 18.0465V17.8072L16.6736 17.0194V20.3063C16.6744 20.4651 16.6383 20.6219 16.5682 20.7644C16.4982 20.9069 16.396 21.0313 16.2698 21.1276C16.0835 21.2619 15.8595 21.3339 15.6298 21.3333C15.5292 21.3333 15.4622 21.3333 15.3601 21.2983L6.8054 19.1086C6.58418 19.0408 6.39004 18.9048 6.25074 18.7201C6.11143 18.5354 6.0341 18.3113 6.02978 18.08V14.2796L2.72921 13.4232C2.61515 13.6671 2.43444 13.8738 2.20796 14.0194C1.98148 14.165 1.71844 14.2436 1.44921 14.2461C1.25677 14.2459 1.06628 14.2075 0.888844 14.1329C0.71141 14.0584 0.550575 13.9494 0.415707 13.8121C0.280838 13.6748 0.174632 13.5121 0.103274 13.3333C0.0319165 13.1546 -0.00316686 12.9635 6.75925e-05 12.771V6.71238C6.75925e-05 5.88952 0.640068 5.24038 1.44769 5.24038C1.98864 5.24038 2.49302 5.58171 2.72769 6.06171L19.8065 1.71124V1.472C19.8065 0.649143 20.4465 0 21.2542 0H21.2557ZM8.11892 14.7916V17.2236L14.586 18.8998V16.4358L8.11892 14.7916ZM24.9936 13.9368C25.0638 13.7948 25.1619 13.6685 25.282 13.5653C25.4022 13.4622 25.5419 13.3843 25.6928 13.3364C25.8437 13.2884 26.0028 13.2714 26.1604 13.2863C26.3181 13.3013 26.4711 13.3478 26.6104 13.4232L30.4168 15.4773C30.6884 15.641 30.8902 15.899 30.9835 16.2021C31.0768 16.5051 31.0552 16.8319 30.9227 17.12C30.8276 17.316 30.679 17.4811 30.494 17.5962C30.309 17.7114 30.0953 17.7718 29.8774 17.7707C29.678 17.7781 29.4803 17.7306 29.306 17.6335L25.498 15.5794C24.8915 15.2716 24.6904 14.5173 24.9936 13.9368V13.9368ZM30.8206 8.52724C31.1346 8.5336 31.4337 8.66239 31.654 8.88615C31.8744 9.10991 31.9985 9.41092 32.0001 9.72495C31.9985 10.039 31.8744 10.34 31.654 10.5638C31.4337 10.7875 31.1346 10.9163 30.8206 10.9227H26.3086C25.9947 10.9163 25.6956 10.7875 25.4753 10.5638C25.2549 10.34 25.1307 10.039 25.1292 9.72495C25.1303 9.41065 25.2543 9.10926 25.4747 8.88517C25.6951 8.66109 25.9944 8.53208 26.3086 8.52571L30.8206 8.52724ZM29.306 1.8499C29.4457 1.77746 29.5984 1.73328 29.7552 1.71989C29.9121 1.70649 30.07 1.72414 30.22 1.77184C30.3701 1.81953 30.5092 1.89633 30.6295 1.99784C30.7498 2.09935 30.8489 2.22358 30.9212 2.36343C31.0669 2.64922 31.0958 2.9804 31.002 3.28713C30.9082 3.59387 30.6989 3.85219 30.4184 4.00762L26.6104 6.06171C26.4345 6.15485 26.2379 6.20202 26.0389 6.19886C25.8211 6.20003 25.6073 6.13956 25.4223 6.02443C25.2374 5.9093 25.0887 5.7442 24.9936 5.54819C24.8482 5.26204 24.8197 4.93058 24.9141 4.6238C25.0085 4.31701 25.2184 4.05892 25.4995 3.904L29.306 1.8499Z" />
</svg>