<svg xmlns="http://www.w3.org/2000/svg" width="32" height="32" viewBox="0 0 32 32">
<title>horn</title>
    <path d="M20.733 8C21.411 8 22 8.52 22 9.173v13.208c0 .655-.56 1.173-1.267 1.173-.168 0-.334-.031-.489-.09a1.282 1.282 0 0 1-.413-.256 1.152 1.152 0 0 1-.273-.38 1.065 1.065 0 0 1-.091-.447v-.19l-2.878-.629v2.62c.001.126-.03.251-.092.365a.84.84 0 0 1-.26.29 1.018 1.018 0 0 1-.56.163c-.089 0-.148 0-.237-.028l-7.485-1.745a.965.965 0 0 1-.486-.31.826.826 0 0 1-.193-.51V19.38l-2.888-.682c-.1.194-.258.359-.456.475a1.34 1.34 0 0 1-1.568-.165c-.118-.11-.211-.24-.274-.382a1.068 1.068 0 0 1-.09-.448v-4.828c0-.656.56-1.173 1.267-1.173.473 0 .915.272 1.12.654l15.078-3.466v-.191c0-.656.56-1.173 1.267-1.173h.001zM9.104 19.787v1.938l5.659 1.336v-1.964l-5.659-1.31zm14.765-.681a.956.956 0 0 1 .253-.296 1.06 1.06 0 0 1 .36-.183 1.127 1.127 0 0 1 .802.07l3.33 1.637c.238.13.415.336.496.577a.943.943 0 0 1-.053.732.956.956 0 0 1-.375.379c-.162.092-.349.14-.54.139a1.03 1.03 0 0 1-.5-.11l-3.331-1.636c-.531-.245-.707-.846-.442-1.31zm5.099-4.31c.275.004.536.107.73.285a.918.918 0 0 1 .302.669.918.918 0 0 1-.303.668c-.193.178-.454.28-.729.286H25.02a1.106 1.106 0 0 1-.73-.286.918.918 0 0 1-.302-.668c.001-.25.11-.491.302-.67.193-.178.455-.281.73-.286l3.948.001zm-1.325-5.322a1.127 1.127 0 0 1 .8-.062c.13.038.252.1.358.18.105.08.192.18.255.291a.906.906 0 0 1 .07.736 1.01 1.01 0 0 1-.51.575l-3.332 1.636a1.116 1.116 0 0 1-.5.11c-.19 0-.378-.047-.54-.14a.956.956 0 0 1-.375-.379.907.907 0 0 1-.07-.736c.083-.245.267-.45.513-.574l3.33-1.637z"/>
</svg>
