<!-- Generated by IcoMoon.io -->
<svg version="1.1" xmlns="http://www.w3.org/2000/svg" width="32" height="32" viewBox="0 0 32 32">
<title>music-note</title>
<path d="M7.195 28.469c-2.479 0-4.486-1.441-4.674-3.352-0.203-2.096 1.564-4.016 4.281-4.279 0.207-0.020 0.416-0.029 0.621-0.029 0.631 0 1.709 0.094 2.284 0.277l0.292 0.094v-15.836l18-1.914 0.008 19.695c-0.006 0.035-0.010 0.098-0.006 0.148 0.098 1.004-0.314 2-1.162 2.807-0.863 0.818-2.068 1.342-3.395 1.471-0.207 0.020-0.416 0.031-0.623 0.031v0c-2.479 0-4.486-1.441-4.674-3.354-0.203-2.096 1.844-4.014 4.559-4.279 0.207-0.020 0.416-0.029 0.621-0.029 0.631 0 1.801 0.092 2.379 0.277l0.293 0.094v-11.491l-14 1.394v13.82c-0.004 0.035-0.010 0.098-0.005 0.146 0.098 1.004-0.126 2.002-0.974 2.809-0.863 0.82-1.877 1.342-3.203 1.471-0.207 0.020-0.417 0.029-0.623 0.029z"></path>
</svg>
