<!-- Generated by IcoMoon.io -->
<svg version="1.1" xmlns="http://www.w3.org/2000/svg" width="32" height="32" viewBox="0 0 32 32">
<title>news</title>
<path d="M29.333 3.5h-23.334c-0.92 0-1.667 0.747-1.667 1.667v20c0 0.46-0.373 0.833-0.833 0.833s-0.833-0.373-0.833-0.833v-18.334c-0.92 0-1.667 0.747-1.667 1.667v17.46c0 1.307 1.218 2.54 2.498 2.54h24.935c1.35 0 2.567-1.153 2.567-2.532v-20.802c0-0.92-0.747-1.667-1.667-1.667zM6.848 7.65c0-0.46 0.373-0.833 0.833-0.833h8.308c0.46 0 0.833 0.373 0.833 0.833v6.693c0 0.46-0.373 0.833-0.833 0.833h-8.308c-0.46 0-0.833-0.373-0.833-0.833v-6.693zM16 25.167h-8.333c-0.461 0-0.833-0.372-0.833-0.833s0.372-0.833 0.833-0.833h8.333c0.46 0 0.833 0.373 0.833 0.833s-0.373 0.833-0.833 0.833zM16 21.833h-8.333c-0.461 0-0.833-0.372-0.833-0.833s0.372-0.833 0.833-0.833h8.333c0.46 0 0.833 0.372 0.833 0.833s-0.373 0.833-0.833 0.833zM16 18.5h-8.333c-0.461 0-0.833-0.372-0.833-0.833s0.372-0.833 0.833-0.833h8.333c0.46 0 0.833 0.372 0.833 0.833s-0.373 0.833-0.833 0.833zM27.667 25.167h-7.5c-0.461 0-0.833-0.372-0.833-0.833s0.372-0.833 0.833-0.833h7.5c0.46 0 0.833 0.373 0.833 0.833s-0.373 0.833-0.833 0.833zM27.667 21.833h-7.5c-0.461 0-0.833-0.372-0.833-0.833s0.372-0.833 0.833-0.833h7.5c0.46 0 0.833 0.372 0.833 0.833s-0.373 0.833-0.833 0.833zM27.667 18.5h-7.5c-0.461 0-0.833-0.372-0.833-0.833s0.372-0.833 0.833-0.833h7.5c0.46 0 0.833 0.372 0.833 0.833s-0.373 0.833-0.833 0.833zM27.667 15.167h-7.505c-0.461 0-0.833-0.373-0.833-0.833s0.372-0.833 0.833-0.833h7.505c0.46 0 0.833 0.373 0.833 0.833s-0.373 0.833-0.833 0.833zM27.667 11.833h-7.505c-0.461 0-0.833-0.373-0.833-0.833s0.372-0.833 0.833-0.833h7.505c0.46 0 0.833 0.373 0.833 0.833s-0.373 0.833-0.833 0.833zM27.667 8.5h-7.505c-0.461 0-0.833-0.373-0.833-0.833s0.372-0.833 0.833-0.833h7.505c0.46 0 0.833 0.373 0.833 0.833s-0.373 0.833-0.833 0.833z"></path>
</svg>
