<!-- Generated by IcoMoon.io -->
<svg version="1.1" xmlns="http://www.w3.org/2000/svg" width="35" height="32" viewBox="0 0 35 32">
<title>region</title>
<path d="M17.328 0.903c-8.392 0-15.195 6.759-15.195 15.097 0 8.334 6.803 15.097 15.195 15.097 8.395 0 15.195-6.763 15.195-15.097 0-8.338-6.801-15.097-15.195-15.097zM17.325 9.104c-0.837 0-1.354 1.606-1.354 3.64 0 2.039-5.136 2.015-5.136 2.981 0 0.963 1.227 1.625 3.023 1.625s4.835 2.872 4.835 5.552-2.525 3.492-3.476 4.781c-0.126 0.163-0.755 0.834-0.879 0.949-1.068 1.12-1.152-0.21-1.192-1.243 0-0.040-0.019-0.051-0.019-0.091 0-1.288 0-3.107 0-5.466s-1.594-3.942-2.789-4.375c-3.177-1.171-4.977-2.268-5.542-3.951 0.584-2.922 2.581-5.606 4.842-7.395 1.482-0.97 2.906-1.174 2.906-0.354 0 0.855-1.91 2.039-1.91 3.002s0.236 1.712 1.075 1.712c0.834 0 1.192-0.641 1.192-1.604 0-0.966-0.117-1.821 0.959-1.821 1.073 0 0.243 1.713 1.196 1.713 1.674 0 1.83-3.322 0.159-3.322-1.412 0-1.676-1.368-0.091-1.774 0.416-0.061 1.178-0.105 1.604-0.126 2.992 0.030 4.626 1.174 4.626 2.756-0.003 2.727-3.191 2.811-4.028 2.811zM26.887 22.819c-1.431 0-0.477-5.599-2.752-5.599-2.873 0-2.658-3.427-2.658-4.068s1.223-1.071 2.062-1.071 0.72-2.466 0.72-3.43c0-1.606 1.157-2.721 1.877-1.758 0.72 0.966 1.826 2.831 1.826 5.082 0 1.917 1.384 2.597 1.796 4.012-0.010 1.611-0.168 3.154-0.746 4.563-0.562 1.089-1.441 2.269-2.126 2.269z"></path>
</svg>
