<!-- Generated by IcoMoon.io -->
<svg version="1.1" xmlns="http://www.w3.org/2000/svg" width="34" height="32" viewBox="0 0 34 32">
<title>settings</title>
<path d="M6.991 9c0-2.209 1.791-4 4-4s4 1.791 4 4c0 2.209-1.791 4-4 4s-4-1.791-4-4zM10.991 2c-3.866 0-7 3.134-7 7s3.134 7 7 7c3.171 0 5.85-2.109 6.71-5h12.29c0.828 0 1.5-0.672 1.5-1.5s-0.672-1.5-1.5-1.5h-12.071c-0.485-3.392-3.403-6-6.929-6zM20.991 23c0 2.209 1.791 4 4 4s4-1.791 4-4-1.791-4-4-4c-2.209 0-4 1.791-4 4zM18.281 25h-12.54c-0.828 0-1.5-0.672-1.5-1.5s0.672-1.5 1.5-1.5h12.321c0.485-3.392 3.403-6 6.929-6 3.866 0 7 3.134 7 7s-3.134 7-7 7c-3.171 0-5.85-2.109-6.71-5z"></path>
</svg>
