<svg width="17" height="14" viewBox="0 0 17 14" fill="none" xmlns="http://www.w3.org/2000/svg">
    <title>swap</title>
    <path fill-rule="evenodd" clip-rule="evenodd" d="M14.2637 1.0506L16.5887 3.3756C16.7471 3.53393 16.7471 3.8006 16.5804 3.95893L14.2554 6.28393C13.9971 6.5506 13.5471 6.36727 13.5471 5.99227V4.5006H1.88039C1.42206 4.5006 1.04706 4.1256 1.04706 3.66726C1.04706 3.20893 1.42206 2.83393 1.88039 2.83393H13.5471V1.34226C13.5471 0.967262 13.9971 0.783928 14.2637 1.0506ZM2.82987 12.9498L0.504874 10.6248C0.346541 10.4665 0.346541 10.1998 0.513208 10.0415L2.83821 7.7165C3.09654 7.44984 3.54654 7.63317 3.54654 8.00817V9.49984H15.2132C15.6715 9.49984 16.0465 9.87484 16.0465 10.3332C16.0465 10.7915 15.6715 11.1665 15.2132 11.1665H3.54654V12.6582C3.54654 13.0332 3.09654 13.2165 2.82987 12.9498Z"/>
</svg>

