<!-- Generated by IcoMoon.io -->
<svg version="1.1" xmlns="http://www.w3.org/2000/svg" width="32" height="32" viewBox="0 0 32 32">
<title>icon-twitter</title>
<path d="M10.052 29c12.075 0 18.683-10.014 18.683-18.683 0-0.282 0-0.563-0.013-0.845 1.28-0.922 2.395-2.087 3.278-3.406-1.178 0.525-2.446 0.871-3.777 1.037 1.357-0.807 2.395-2.1 2.894-3.637-1.268 0.756-2.676 1.293-4.174 1.588-1.204-1.28-2.907-2.074-4.789-2.074-3.624 0-6.569 2.945-6.569 6.569 0 0.512 0.064 1.012 0.166 1.498-5.455-0.269-10.295-2.894-13.535-6.864-0.563 0.973-0.884 2.1-0.884 3.304 0 2.279 1.165 4.29 2.92 5.468-1.076-0.038-2.087-0.333-2.971-0.82 0 0.026 0 0.051 0 0.090 0 3.176 2.267 5.839 5.263 6.441-0.551 0.154-1.127 0.23-1.729 0.23-0.423 0-0.832-0.038-1.229-0.115 0.832 2.612 3.265 4.507 6.134 4.559-2.254 1.767-5.084 2.817-8.157 2.817-0.525 0-1.050-0.026-1.562-0.090 2.894 1.844 6.351 2.932 10.052 2.932z"></path>
</svg>
