<!-- Generated by IcoMoon.io -->
<svg version="1.1" xmlns="http://www.w3.org/2000/svg" width="32" height="32" viewBox="0 0 32 32">
<title>upload</title>
<path d="M28 6c0-1.104-0.895-2-2-2h-20c-1.106 0-2 0.896-2 2 0 1.106 0.894 2 2 2h20c1.105 0 2-0.894 2-2z"></path>
<path d="M8.258 17.523c-0.586 0.586-0.586 1.535 0 2.121s1.535 0.586 2.121 0v0l3.684-3.682v10.037c0 1.105 0.895 2 2 2s2-0.895 2-2v-10.037l3.684 3.682c0.586 0.586 1.535 0.586 2.121 0s0.586-1.535 0-2.121v0l-7.805-7.805-7.805 7.805z"></path>
</svg>
